<?xml version="1.0" encoding="UTF-8" standalone="no"?>
<!DOCTYPE svg PUBLIC "-//W3C//DTD SVG 1.1//EN"
 "http://www.w3.org/Graphics/SVG/1.1/DTD/svg11.dtd">
<!-- Generated by graphviz version 2.46.0 (20210118.1747)
 -->
<!-- Title: G Pages: 1 -->
<svg width="572pt" height="485pt"
 viewBox="0.00 0.00 572.00 485.00" xmlns="http://www.w3.org/2000/svg" xmlns:xlink="http://www.w3.org/1999/xlink">
<g id="graph0" class="graph" transform="scale(1 1) rotate(0) translate(4 481)">
<title>G</title>
<polygon fill="white" stroke="transparent" points="-4,4 -4,-481 568,-481 568,4 -4,4"/>
<g id="clust1" class="cluster">
<title>cluster_root</title>
<g id="a_clust1"><a xlink:title="eventq_index=0&#10;full_system=true&#10;sim_quantum=0&#10;time_sync_enable=false&#10;time_sync_period=100000000000&#10;time_sync_spin_threshold=100000000">
<path fill="#bab6ae" stroke="#000000" d="M20,-8C20,-8 544,-8 544,-8 550,-8 556,-14 556,-20 556,-20 556,-457 556,-457 556,-463 550,-469 544,-469 544,-469 20,-469 20,-469 14,-469 8,-463 8,-457 8,-457 8,-20 8,-20 8,-14 14,-8 20,-8"/>
<text text-anchor="middle" x="282" y="-453.8" font-family="Arial" font-size="14.00" fill="#000000">root </text>
<text text-anchor="middle" x="282" y="-438.8" font-family="Arial" font-size="14.00" fill="#000000">: Root</text>
</a>
</g>
</g>
<g id="clust2" class="cluster">
<title>cluster_system</title>
<g id="a_clust2"><a xlink:title="byte_order=little&#10;cache_line_size=64&#10;eventq_index=0&#10;exit_on_work_items=false&#10;init_param=0&#10;m5ops_base=0&#10;mem_mode=atomic&#10;mem_ranges=&#10;memories=system.memory&#10;mmap_using_noreserve=false&#10;multi_thread=false&#10;&#10;um_work_ids=16&#10;&#13;eadfile=&#10;&#13;edirect_paths=&#10;shared_backstore=&#10;symbolfile=&#10;thermal_components=&#10;thermal_model=Null&#10;work_begin_ckpt_count=0&#10;work_begin_cpu_id_exit=&#45;1&#10;work_begin_exit_count=0&#10;work_cpus_ckpt_count=0&#10;work_end_ckpt_count=0&#10;work_end_exit_count=0&#10;work_item_id=&#45;1&#10;workload=Null">
<path fill="#e4e7eb" stroke="#000000" d="M28,-16C28,-16 536,-16 536,-16 542,-16 548,-22 548,-28 548,-28 548,-411 548,-411 548,-417 542,-423 536,-423 536,-423 28,-423 28,-423 22,-423 16,-417 16,-411 16,-411 16,-28 16,-28 16,-22 22,-16 28,-16"/>
<text text-anchor="middle" x="282" y="-407.8" font-family="Arial" font-size="14.00" fill="#000000">system </text>
<text text-anchor="middle" x="282" y="-392.8" font-family="Arial" font-size="14.00" fill="#000000">: System</text>
</a>
</g>
</g>
<g id="clust6" class="cluster">
<title>cluster_system_adapter</title>
<g id="a_clust6"><a xlink:title="config_files=&#10;core_engine_debug=false&#10;disable_mem_check=false&#10;disable_watchdog=false&#10;eventq_index=0&#10;exit_when_done=true&#10;exit_when_one_master_ends=false&#10;init_only=false&#10;out_of_range_addresses=false&#10;profiles_as_masters=false&#10;system=system&#10;trace_atp=false&#10;trace_gem=false&#10;trace_gem_file=gem5.trace&#10;trace_m3i=false&#10;trace_m3i_bus=16&#10;tracker_latency=false">
<path fill="#bab6ae" stroke="#000000" d="M352,-24C352,-24 417,-24 417,-24 423,-24 429,-30 429,-36 429,-36 429,-103 429,-103 429,-109 423,-115 417,-115 417,-115 352,-115 352,-115 346,-115 340,-109 340,-103 340,-103 340,-36 340,-36 340,-30 346,-24 352,-24"/>
<text text-anchor="middle" x="384.5" y="-99.8" font-family="Arial" font-size="14.00" fill="#000000">adapter </text>
<text text-anchor="middle" x="384.5" y="-84.8" font-family="Arial" font-size="14.00" fill="#000000">: ProfileGen</text>
</a>
</g>
</g>
<g id="clust7" class="cluster">
<title>cluster_system_req0</title>
<g id="a_clust7"><a xlink:title="adapter=system.adapter&#10;amba_id=0&#10;atp_id=REQ0&#10;clk_domain=system.clk_domain&#10;eventq_index=0&#10;interrupt=system.req0.interrupt&#10;pio_addr=536870912&#10;pio_latency=10000&#10;power_model=&#10;power_state=system.req0.power_state&#10;sid=0&#10;ssid=0&#10;system=system">
<path fill="#c7a793" stroke="#000000" d="M410,-286C410,-286 528,-286 528,-286 534,-286 540,-292 540,-298 540,-298 540,-365 540,-365 540,-371 534,-377 528,-377 528,-377 410,-377 410,-377 404,-377 398,-371 398,-365 398,-365 398,-298 398,-298 398,-292 404,-286 410,-286"/>
<text text-anchor="middle" x="469" y="-361.8" font-family="Arial" font-size="14.00" fill="#000000">req0 </text>
<text text-anchor="middle" x="469" y="-346.8" font-family="Arial" font-size="14.00" fill="#000000">: ATPDevice</text>
</a>
</g>
</g>
<g id="clust10" class="cluster">
<title>cluster_system_req1</title>
<g id="a_clust10"><a xlink:title="adapter=system.adapter&#10;amba_id=0&#10;atp_id=REQ1&#10;clk_domain=system.clk_domain&#10;eventq_index=0&#10;interrupt=system.req1.interrupt&#10;pio_addr=536875008&#10;pio_latency=10000&#10;power_model=&#10;power_state=system.req1.power_state&#10;sid=0&#10;ssid=0&#10;system=system">
<path fill="#c7a793" stroke="#000000" d="M260,-286C260,-286 378,-286 378,-286 384,-286 390,-292 390,-298 390,-298 390,-365 390,-365 390,-371 384,-377 378,-377 378,-377 260,-377 260,-377 254,-377 248,-371 248,-365 248,-365 248,-298 248,-298 248,-292 254,-286 260,-286"/>
<text text-anchor="middle" x="319" y="-361.8" font-family="Arial" font-size="14.00" fill="#000000">req1 </text>
<text text-anchor="middle" x="319" y="-346.8" font-family="Arial" font-size="14.00" fill="#000000">: ATPDevice</text>
</a>
</g>
</g>
<g id="clust15" class="cluster">
<title>cluster_system_interconnect</title>
<g id="a_clust15"><a xlink:title="clk_domain=system.clk_domain&#10;eventq_index=0&#10;forward_latency=1&#10;frontend_latency=2&#10;header_latency=1&#10;power_model=&#10;power_state=system.interconnect.power_state&#10;&#13;esponse_latency=2&#10;use_default_range=false&#10;width=16">
<path fill="#6f798c" stroke="#000000" d="M198,-155C198,-155 434,-155 434,-155 440,-155 446,-161 446,-167 446,-167 446,-234 446,-234 446,-240 440,-246 434,-246 434,-246 198,-246 198,-246 192,-246 186,-240 186,-234 186,-234 186,-167 186,-167 186,-161 192,-155 198,-155"/>
<text text-anchor="middle" x="316" y="-230.8" font-family="Arial" font-size="14.00" fill="#000000">interconnect </text>
<text text-anchor="middle" x="316" y="-215.8" font-family="Arial" font-size="14.00" fill="#000000">: IOXBar</text>
</a>
</g>
</g>
<g id="clust17" class="cluster">
<title>cluster_system_memory</title>
<g id="a_clust17"><a xlink:title="bandwidth=73.000000&#10;clk_domain=system.clk_domain&#10;conf_table_reported=true&#10;eventq_index=0&#10;image_file=&#10;in_addr_map=true&#10;kvm_map=true&#10;&#10;atency=30000&#10;&#10;atency_var=0&#10;&#10;ull=false&#10;power_model=&#10;power_state=system.memory.power_state&#10;&#13;ange=0:134217728">
<path fill="#5e5958" stroke="#000000" d="M136,-286C136,-286 228,-286 228,-286 234,-286 240,-292 240,-298 240,-298 240,-365 240,-365 240,-371 234,-377 228,-377 228,-377 136,-377 136,-377 130,-377 124,-371 124,-365 124,-365 124,-298 124,-298 124,-292 130,-286 136,-286"/>
<text text-anchor="middle" x="182" y="-361.8" font-family="Arial" font-size="14.00" fill="#000000">memory </text>
<text text-anchor="middle" x="182" y="-346.8" font-family="Arial" font-size="14.00" fill="#000000">: SimpleMemory</text>
</a>
</g>
</g>
<!-- system_system_port -->
<g id="node1" class="node">
<title>system_system_port</title>
<path fill="#b6b8bc" stroke="#000000" d="M36.5,-294.5C36.5,-294.5 103.5,-294.5 103.5,-294.5 109.5,-294.5 115.5,-300.5 115.5,-306.5 115.5,-306.5 115.5,-318.5 115.5,-318.5 115.5,-324.5 109.5,-330.5 103.5,-330.5 103.5,-330.5 36.5,-330.5 36.5,-330.5 30.5,-330.5 24.5,-324.5 24.5,-318.5 24.5,-318.5 24.5,-306.5 24.5,-306.5 24.5,-300.5 30.5,-294.5 36.5,-294.5"/>
<text text-anchor="middle" x="70" y="-308.8" font-family="Arial" font-size="14.00" fill="#000000">system_port</text>
</g>
<!-- system_interconnect_cpu_side_ports -->
<g id="node7" class="node">
<title>system_interconnect_cpu_side_ports</title>
<path fill="#586070" stroke="#000000" d="M342,-163.5C342,-163.5 426,-163.5 426,-163.5 432,-163.5 438,-169.5 438,-175.5 438,-175.5 438,-187.5 438,-187.5 438,-193.5 432,-199.5 426,-199.5 426,-199.5 342,-199.5 342,-199.5 336,-199.5 330,-193.5 330,-187.5 330,-187.5 330,-175.5 330,-175.5 330,-169.5 336,-163.5 342,-163.5"/>
<text text-anchor="middle" x="384" y="-177.8" font-family="Arial" font-size="14.00" fill="#000000">cpu_side_ports</text>
</g>
<!-- system_system_port&#45;&gt;system_interconnect_cpu_side_ports -->
<g id="edge1" class="edge">
<title>system_system_port&#45;&gt;system_interconnect_cpu_side_ports</title>
<path fill="none" stroke="black" d="M100.09,-294.48C106.52,-291.32 113.37,-288.3 120,-286 206.05,-256.14 240.76,-289.1 321,-246 338.33,-236.69 353.94,-221.04 365.29,-207.61"/>
<polygon fill="black" stroke="black" points="368.2,-209.58 371.78,-199.61 362.76,-205.17 368.2,-209.58"/>
</g>
<!-- system_adapter_port -->
<g id="node2" class="node">
<title>system_adapter_port</title>
<path fill="#94918b" stroke="#000000" d="M369,-32.5C369,-32.5 399,-32.5 399,-32.5 405,-32.5 411,-38.5 411,-44.5 411,-44.5 411,-56.5 411,-56.5 411,-62.5 405,-68.5 399,-68.5 399,-68.5 369,-68.5 369,-68.5 363,-68.5 357,-62.5 357,-56.5 357,-56.5 357,-44.5 357,-44.5 357,-38.5 363,-32.5 369,-32.5"/>
<text text-anchor="middle" x="384" y="-46.8" font-family="Arial" font-size="14.00" fill="#000000">port</text>
</g>
<!-- system_req0_dma -->
<g id="node3" class="node">
<title>system_req0_dma</title>
<path fill="#9f8575" stroke="#000000" d="M490,-294.5C490,-294.5 520,-294.5 520,-294.5 526,-294.5 532,-300.5 532,-306.5 532,-306.5 532,-318.5 532,-318.5 532,-324.5 526,-330.5 520,-330.5 520,-330.5 490,-330.5 490,-330.5 484,-330.5 478,-324.5 478,-318.5 478,-318.5 478,-306.5 478,-306.5 478,-300.5 484,-294.5 490,-294.5"/>
<text text-anchor="middle" x="505" y="-308.8" font-family="Arial" font-size="14.00" fill="#000000">dma</text>
</g>
<!-- system_req0_dma&#45;&gt;system_interconnect_cpu_side_ports -->
<g id="edge2" class="edge">
<title>system_req0_dma&#45;&gt;system_interconnect_cpu_side_ports</title>
<path fill="none" stroke="black" d="M488.93,-294.37C467.96,-272.01 431.11,-232.72 407.13,-207.16"/>
<polygon fill="black" stroke="black" points="409.53,-204.6 400.13,-199.7 404.42,-209.39 409.53,-204.6"/>
</g>
<!-- system_req0_pio -->
<g id="node4" class="node">
<title>system_req0_pio</title>
<path fill="#9f8575" stroke="#000000" d="M418,-294.5C418,-294.5 448,-294.5 448,-294.5 454,-294.5 460,-300.5 460,-306.5 460,-306.5 460,-318.5 460,-318.5 460,-324.5 454,-330.5 448,-330.5 448,-330.5 418,-330.5 418,-330.5 412,-330.5 406,-324.5 406,-318.5 406,-318.5 406,-306.5 406,-306.5 406,-300.5 412,-294.5 418,-294.5"/>
<text text-anchor="middle" x="433" y="-308.8" font-family="Arial" font-size="14.00" fill="#000000">pio</text>
</g>
<!-- system_interconnect_mem_side_ports -->
<g id="node8" class="node">
<title>system_interconnect_mem_side_ports</title>
<path fill="#586070" stroke="#000000" d="M206,-163.5C206,-163.5 300,-163.5 300,-163.5 306,-163.5 312,-169.5 312,-175.5 312,-175.5 312,-187.5 312,-187.5 312,-193.5 306,-199.5 300,-199.5 300,-199.5 206,-199.5 206,-199.5 200,-199.5 194,-193.5 194,-187.5 194,-187.5 194,-175.5 194,-175.5 194,-169.5 200,-163.5 206,-163.5"/>
<text text-anchor="middle" x="253" y="-177.8" font-family="Arial" font-size="14.00" fill="#000000">mem_side_ports</text>
</g>
<!-- system_req0_pio&#45;&gt;system_interconnect_mem_side_ports -->
<g id="edge3" class="edge">
<title>system_req0_pio&#45;&gt;system_interconnect_mem_side_ports</title>
<path fill="none" stroke="black" d="M399.07,-289.09C397.36,-288.03 395.67,-287 394,-286 362.27,-266.97 350.98,-267.68 321,-246 301.76,-232.08 282.2,-213.21 269.02,-199.66"/>
<polygon fill="black" stroke="black" points="397.26,-292.09 407.59,-294.48 401,-286.18 397.26,-292.09"/>
</g>
<!-- system_req1_dma -->
<g id="node5" class="node">
<title>system_req1_dma</title>
<path fill="#9f8575" stroke="#000000" d="M340,-294.5C340,-294.5 370,-294.5 370,-294.5 376,-294.5 382,-300.5 382,-306.5 382,-306.5 382,-318.5 382,-318.5 382,-324.5 376,-330.5 370,-330.5 370,-330.5 340,-330.5 340,-330.5 334,-330.5 328,-324.5 328,-318.5 328,-318.5 328,-306.5 328,-306.5 328,-300.5 334,-294.5 340,-294.5"/>
<text text-anchor="middle" x="355" y="-308.8" font-family="Arial" font-size="14.00" fill="#000000">dma</text>
</g>
<!-- system_req1_dma&#45;&gt;system_interconnect_cpu_side_ports -->
<g id="edge4" class="edge">
<title>system_req1_dma&#45;&gt;system_interconnect_cpu_side_ports</title>
<path fill="none" stroke="black" d="M358.85,-294.37C363.73,-272.68 372.18,-235.08 377.93,-209.51"/>
<polygon fill="black" stroke="black" points="381.35,-210.23 380.13,-199.7 374.52,-208.69 381.35,-210.23"/>
</g>
<!-- system_req1_pio -->
<g id="node6" class="node">
<title>system_req1_pio</title>
<path fill="#9f8575" stroke="#000000" d="M268,-294.5C268,-294.5 298,-294.5 298,-294.5 304,-294.5 310,-300.5 310,-306.5 310,-306.5 310,-318.5 310,-318.5 310,-324.5 304,-330.5 298,-330.5 298,-330.5 268,-330.5 268,-330.5 262,-330.5 256,-324.5 256,-318.5 256,-318.5 256,-306.5 256,-306.5 256,-300.5 262,-294.5 268,-294.5"/>
<text text-anchor="middle" x="283" y="-308.8" font-family="Arial" font-size="14.00" fill="#000000">pio</text>
</g>
<!-- system_req1_pio&#45;&gt;system_interconnect_mem_side_ports -->
<g id="edge5" class="edge">
<title>system_req1_pio&#45;&gt;system_interconnect_mem_side_ports</title>
<path fill="none" stroke="black" d="M276.74,-284.57C270.8,-259.03 262.05,-221.42 257,-199.7"/>
<polygon fill="black" stroke="black" points="273.34,-285.42 279.02,-294.37 280.16,-283.84 273.34,-285.42"/>
</g>
<!-- system_interconnect_cpu_side_ports&#45;&gt;system_adapter_port -->
<g id="edge6" class="edge">
<title>system_interconnect_cpu_side_ports&#45;&gt;system_adapter_port</title>
<path fill="none" stroke="black" d="M378.37,-153.23C376.63,-127.7 376.92,-90.32 379.23,-68.7"/>
<polygon fill="black" stroke="black" points="374.9,-153.71 379.24,-163.37 381.87,-153.11 374.9,-153.71"/>
</g>
<!-- system_interconnect_cpu_side_ports&#45;&gt;system_adapter_port -->
<g id="edge7" class="edge">
<title>system_interconnect_cpu_side_ports&#45;&gt;system_adapter_port</title>
<path fill="none" stroke="black" d="M389.63,-153.23C391.37,-127.7 391.08,-90.32 388.77,-68.7"/>
<polygon fill="black" stroke="black" points="386.13,-153.11 388.76,-163.37 393.1,-153.71 386.13,-153.11"/>
</g>
<!-- system_memory_port -->
<g id="node9" class="node">
<title>system_memory_port</title>
<path fill="#4b4746" stroke="#000000" d="M190,-294.5C190,-294.5 220,-294.5 220,-294.5 226,-294.5 232,-300.5 232,-306.5 232,-306.5 232,-318.5 232,-318.5 232,-324.5 226,-330.5 220,-330.5 220,-330.5 190,-330.5 190,-330.5 184,-330.5 178,-324.5 178,-318.5 178,-318.5 178,-306.5 178,-306.5 178,-300.5 184,-294.5 190,-294.5"/>
<text text-anchor="middle" x="205" y="-308.8" font-family="Arial" font-size="14.00" fill="#000000">port</text>
</g>
<!-- system_memory_port&#45;&gt;system_interconnect_mem_side_ports -->
<g id="edge8" class="edge">
<title>system_memory_port&#45;&gt;system_interconnect_mem_side_ports</title>
<path fill="none" stroke="black" d="M214.89,-284.91C224.4,-259.37 238.48,-221.52 246.6,-199.7"/>
<polygon fill="black" stroke="black" points="211.58,-283.78 211.37,-294.37 218.14,-286.22 211.58,-283.78"/>
</g>
</g>
</svg>
